<?xml version="1.0" standalone="no"?>
<!DOCTYPE svg PUBLIC "-//W3C//DTD SVG 20010904//EN"
 "http://www.w3.org/TR/2001/REC-SVG-20010904/DTD/svg10.dtd">
<svg version="1.0" xmlns="http://www.w3.org/2000/svg"
 width="102.000000pt" height="78.000000pt" viewBox="0 0 102.000000 78.000000"
 preserveAspectRatio="xMidYMid meet">

<g transform="translate(0.000000,78.000000) scale(0.100000,-0.100000)"
fill="#000000" stroke="none">
<path d="M165 753 c-102 -42 -107 -65 -15 -79 50 -8 56 -13 77 -49 12 -22 23
-47 23 -56 0 -9 -24 -35 -52 -57 -29 -22 -73 -58 -98 -80 l-44 -39 14 -44 c8
-24 14 -47 12 -52 -1 -4 2 -7 7 -7 5 0 12 11 15 25 4 17 11 23 23 18 11 -4 14
-3 9 5 -4 7 -2 12 4 12 6 0 13 -7 16 -15 6 -14 8 -13 19 1 11 15 12 14 11 -13
0 -17 -4 -29 -7 -27 -3 2 -16 -6 -27 -16 -12 -11 -27 -19 -34 -18 -8 2 -12 -6
-11 -20 2 -17 -5 -26 -30 -37 -17 -8 -28 -14 -24 -15 4 0 2 -10 -4 -22 -9 -19
-9 -21 2 -10 16 15 93 17 84 2 -9 -14 -101 -60 -120 -60 -11 0 -15 -12 -15
-50 0 -27 2 -50 4 -50 2 0 14 16 25 36 l22 36 64 -7 c60 -6 67 -5 95 19 33 27
33 27 147 -25 34 -15 65 -19 149 -19 99 0 107 2 142 28 59 44 65 51 102 126
l35 71 101 -4 c67 -2 104 1 108 8 5 7 -2 11 -18 11 -13 0 -58 7 -98 15 -42 9
-89 13 -111 9 -35 -5 -98 -47 -95 -62 4 -23 -24 -62 -49 -68 -15 -3 -43 -10
-61 -16 -24 -7 -37 -6 -48 3 -9 7 -23 14 -31 15 -18 3 -55 35 -48 43 3 3 -27
38 -66 77 l-72 73 19 48 c28 69 28 71 2 40 l-24 -27 -39 20 c-22 11 -46 20
-54 20 -10 0 -5 10 14 30 36 37 44 38 51 1 l6 -30 30 22 c23 17 31 19 37 8 7
-11 11 -9 20 6 16 31 -67 196 -110 218 -23 12 -29 21 -24 36 4 10 5 19 3 18
-2 0 -30 -12 -63 -26z m95 -353 c0 -5 -5 -10 -11 -10 -5 0 -7 5 -4 10 3 6 8
10 11 10 2 0 4 -4 4 -10z m-95 -200 c-3 -5 -10 -10 -16 -10 -5 0 -9 5 -9 10 0
6 7 10 16 10 8 0 12 -4 9 -10z m507 -75 c-4 -20 -40 -65 -52 -65 -4 0 -17 8
-29 19 -20 17 -20 19 -4 26 17 7 16 8 -2 15 -17 7 -16 9 15 18 51 15 76 11 72
-13z m-224 -3 c2 -7 -3 -12 -12 -12 -9 0 -16 7 -16 16 0 17 22 14 28 -4z m-58
-43 c0 -5 -7 -9 -15 -9 -8 0 -15 7 -15 15 0 9 6 12 15 9 8 -4 15 -10 15 -15z
m144 -9 c-21 -8 -37 -3 -29 10 3 4 15 6 27 2 21 -5 21 -6 2 -12z"/>
</g>
</svg>
