<?xml version="1.0" standalone="no"?>
<!DOCTYPE svg PUBLIC "-//W3C//DTD SVG 20010904//EN"
 "http://www.w3.org/TR/2001/REC-SVG-20010904/DTD/svg10.dtd">
<svg version="1.0" xmlns="http://www.w3.org/2000/svg"
 width="958.000000pt" height="451.000000pt" viewBox="0 0 958.000000 451.000000"
 preserveAspectRatio="xMidYMid meet">

<g transform="translate(0.000000,451.000000) scale(0.100000,-0.100000)"
fill="#000000" stroke="none">
<path d="M4485 4264 c-27 -2 -120 -8 -205 -14 -1362 -97 -2530 -608 -2855
-1250 -80 -158 -100 -284 -66 -415 45 -169 138 -322 296 -481 493 -498 1462
-848 2598 -939 253 -20 851 -20 1104 0 664 53 1267 192 1773 409 693 297 1130
735 1130 1131 0 386 -413 811 -1078 1110 -497 223 -1089 366 -1782 430 -154
15 -796 28 -915 19z m940 -78 c464 -45 923 -135 1245 -245 l115 -39 -405 -2
c-223 0 -425 -1 -450 -2 -25 0 -119 0 -210 1 -91 0 -172 0 -180 0 -8 0 -80 -1
-160 0 -80 0 -154 0 -165 0 -82 0 -273 0 -285 0 -8 0 -94 0 -190 0 -96 0 -247
1 -335 1 -88 1 -167 1 -175 1 -8 0 -49 0 -90 0 -138 1 -175 0 -185 -1 -5 -2
-13 -2 -17 -1 -15 2 -338 1 -551 -1 -119 -2 -217 -1 -217 2 0 3 -58 4 -130 2
-96 -2 -130 1 -130 10 0 6 -7 3 -15 -8 -9 -12 -14 -14 -15 -5 0 8 -6 11 -16 7
-9 -3 -28 -8 -42 -11 -15 -3 32 15 103 40 391 136 935 233 1510 269 154 9 829
-3 990 -18z m-1326 -350 c13 -16 6 -24 -56 -55 -23 -11 -44 -25 -47 -30 -3 -5
16 -23 43 -40 124 -80 181 -182 181 -324 -1 -180 -111 -327 -322 -426 l-77
-37 72 -55 c42 -31 81 -71 94 -95 31 -56 53 -148 56 -232 1 -54 5 -68 14 -59
188 195 402 462 547 679 l71 108 118 0 c64 0 117 -3 117 -6 0 -3 -13 -24 -28
-47 -91 -133 -520 -833 -547 -892 -33 -70 -65 -190 -65 -240 0 -43 26 -41 98
8 86 59 190 152 291 262 179 195 342 315 490 359 76 22 172 21 220 -3 43 -23
55 -35 80 -86 l18 -38 37 62 37 61 110 0 c60 0 109 -3 109 -7 0 -9 -103 -202
-165 -308 -127 -216 -160 -305 -116 -305 26 0 187 148 311 285 220 246 409
353 606 343 81 -4 115 -22 148 -77 25 -43 26 -129 3 -164 -28 -43 -73 -61
-118 -48 -71 21 -96 82 -64 158 18 42 15 48 -20 39 -32 -8 -95 -88 -175 -223
-111 -186 -143 -291 -103 -335 12 -14 31 -18 83 -18 91 0 174 42 303 155 120
106 493 530 756 860 35 44 89 106 120 138 l55 57 113 0 c62 0 113 -2 113 -5 0
-4 -105 -176 -233 -383 -250 -404 -257 -415 -257 -431 0 -17 45 -13 101 9 41
15 74 41 158 128 83 86 117 113 155 128 43 16 52 16 89 3 106 -37 114 -182 14
-232 -71 -36 -133 1 -131 78 l1 43 -24 -15 c-13 -9 -33 -30 -46 -47 -12 -17
-44 -55 -70 -85 l-49 -53 31 -32 c60 -62 65 -129 16 -226 -39 -77 -43 -100
-19 -100 34 0 136 65 211 134 107 98 142 126 159 126 28 0 13 -37 -40 -101
-95 -114 -268 -234 -382 -265 -59 -16 -71 -16 -107 -3 -51 18 -78 54 -84 112
-5 39 1 59 41 144 25 55 46 111 46 126 0 26 -1 27 -62 24 -35 -1 -69 0 -77 3
-10 3 -39 -36 -92 -125 -43 -71 -97 -160 -120 -197 l-41 -68 -124 0 c-68 0
-124 2 -124 5 0 3 49 83 109 177 91 146 186 303 284 468 18 31 -66 -54 -388
-388 -136 -142 -281 -233 -414 -261 -134 -28 -283 34 -320 132 -15 40 -14 135
3 190 l14 47 -44 -37 c-25 -20 -67 -64 -94 -98 -128 -161 -297 -257 -394 -225
-55 18 -69 47 -64 129 4 68 3 69 -17 52 -11 -9 -52 -42 -91 -73 -93 -76 -175
-118 -228 -118 -62 0 -113 18 -153 53 -68 60 -79 134 -39 262 l24 76 -41 -38
c-23 -20 -58 -58 -78 -83 -79 -99 -234 -225 -314 -256 -82 -31 -200 2 -238 66
-22 37 -22 139 -1 211 19 62 71 169 122 249 33 51 27 47 -92 -68 -70 -67 -154
-156 -187 -197 -75 -92 -151 -154 -254 -206 -129 -64 -262 -84 -361 -54 -88
26 -136 97 -135 204 0 133 72 255 188 318 102 56 103 39 4 -69 -48 -53 -96
-114 -106 -134 -36 -76 -32 -168 11 -211 20 -20 30 -23 61 -17 125 23 257 154
359 357 61 120 78 191 69 286 -8 83 -20 114 -59 150 -24 22 -29 23 -65 13 -60
-19 -118 -15 -141 8 -24 24 -26 77 -4 108 41 59 166 82 218 41 l27 -21 57 43
c85 64 121 106 161 189 33 68 36 83 36 160 0 76 -4 93 -32 150 -18 36 -45 81
-61 100 l-29 34 -95 -96 c-173 -174 -283 -374 -397 -723 -83 -253 -197 -450
-350 -605 -188 -190 -386 -279 -659 -296 -287 -18 -507 133 -520 357 -5 81 10
116 74 182 63 63 122 91 181 84 64 -7 95 -33 117 -100 40 -124 -17 -199 -178
-228 -36 -7 -66 -16 -66 -21 0 -40 95 -138 164 -169 93 -41 250 -33 356 18
122 59 207 181 340 488 84 196 270 494 431 695 90 112 288 307 377 373 73 54
77 51 -98 68 -209 20 -394 -3 -617 -76 -404 -133 -667 -370 -665 -601 0 -60
27 -117 70 -149 22 -16 42 -20 107 -20 105 0 167 28 264 121 91 86 166 199
278 420 48 96 91 174 94 174 13 0 19 -49 19 -172 0 -146 -11 -190 -87 -342
-80 -160 -200 -255 -360 -286 -96 -19 -266 -9 -329 19 -94 41 -148 123 -161
241 -6 58 -4 66 36 143 151 298 503 525 931 602 122 22 444 30 614 17 122 -10
131 -10 169 10 94 48 183 62 206 34z"/>
<path d="M5283 2619 c-73 -21 -230 -200 -303 -345 -84 -170 -65 -257 45 -204
83 40 284 269 335 383 26 57 26 127 0 155 -23 24 -29 25 -77 11z"/>
<path d="M2440 3960 c-8 -5 -10 -10 -5 -10 6 0 17 5 25 10 8 5 11 10 5 10 -5
0 -17 -5 -25 -10z"/>
<path d="M7150 3960 c8 -5 20 -10 25 -10 6 0 3 5 -5 10 -8 5 -19 10 -25 10 -5
0 -3 -5 5 -10z"/>
<path d="M2380 3935 c-14 -8 -20 -14 -15 -14 6 0 21 6 35 14 14 8 21 14 15 14
-5 0 -21 -6 -35 -14z"/>
<path d="M7360 3862 c281 -140 471 -268 642 -431 241 -229 378 -493 378 -727
0 -118 -51 -286 -126 -414 -348 -595 -1364 -1066 -2609 -1209 -325 -38 -467
-45 -840 -45 -766 0 -1407 95 -2035 304 -516 171 -925 403 -1200 679 -356 358
-431 735 -218 1095 148 251 379 460 737 665 66 38 117 72 113 76 -4 5 -2 5 5
1 7 -4 43 9 80 28 37 19 64 35 60 36 -5 0 -18 -5 -29 -11 -12 -6 -67 -12 -122
-13 -56 0 -110 -5 -121 -9 -11 -4 1 3 28 18 68 37 58 41 -14 5 -294 -149 -587
-380 -746 -590 -35 -47 -89 -134 -119 -195 -200 -401 -115 -806 245 -1179 509
-525 1462 -880 2686 -1003 260 -26 1040 -26 1300 0 1224 123 2177 478 2686
1003 360 373 445 778 245 1179 -30 61 -84 148 -119 195 -83 109 -234 255 -367
354 -130 97 -336 220 -351 210 -7 -4 -9 -3 -6 3 3 5 -14 19 -38 31 -55 26 -60
20 -7 -8 20 -11 27 -18 15 -15 -28 8 -160 8 -172 1 -5 -3 -39 7 -76 24 -119
53 -84 32 95 -58z m-5090 24 c0 -2 -7 -7 -16 -10 -8 -3 -12 -2 -9 4 6 10 25
14 25 6z m5095 -6 c3 -6 -1 -7 -9 -4 -18 7 -21 14 -7 14 6 0 13 -4 16 -10z"/>
</g>
</svg>
