<?xml version="1.0" standalone="no"?>
<!DOCTYPE svg PUBLIC "-//W3C//DTD SVG 20010904//EN"
 "http://www.w3.org/TR/2001/REC-SVG-20010904/DTD/svg10.dtd">
<svg version="1.0" xmlns="http://www.w3.org/2000/svg"
 width="1024.000000pt" height="576.000000pt" viewBox="0 0 1024.000000 576.000000"
 preserveAspectRatio="xMidYMid meet">

<g transform="translate(0.000000,576.000000) scale(0.100000,-0.100000)"
fill="#000000" stroke="none">
<path d="M2071 3780 c-66 -14 -160 -62 -211 -107 -98 -88 -139 -198 -149 -401
l-6 -123 -125 -2 -125 -2 -3 -82 -3 -83 131 0 130 0 0 -450 0 -450 95 0 95 0
0 450 0 450 230 0 230 0 0 85 0 86 -227 -1 -228 -1 2 115 c2 160 20 216 87
282 36 35 66 54 101 65 89 25 266 12 370 -27 13 -5 15 8 15 89 l0 94 -42 7
c-75 12 -321 16 -367 6z"/>
<path d="M2680 3680 l0 -80 175 0 175 0 0 -760 0 -760 280 0 280 0 0 80 0 80
-185 0 -185 0 0 760 0 760 -270 0 -270 0 0 -80z"/>
<path d="M5330 2920 l0 -840 95 0 95 0 2 311 3 311 280 -310 280 -311 133 0
134 -1 -34 39 c-18 21 -143 158 -278 305 -135 147 -246 270 -248 274 -1 5 62
71 140 148 79 76 201 196 273 266 l130 128 -128 0 -128 0 -274 -265 c-150
-146 -275 -265 -279 -265 -3 0 -6 236 -6 525 l0 525 -95 0 -95 0 0 -840z"/>
<path d="M8198 3721 c-254 -82 -365 -330 -246 -554 31 -57 130 -169 178 -201
l24 -16 -24 -17 c-114 -80 -223 -200 -270 -298 -79 -165 -48 -356 77 -476 91
-89 211 -129 383 -129 217 0 358 66 450 210 81 127 80 314 -2 442 -31 50 -151
168 -231 228 -25 19 -45 38 -44 41 1 3 34 34 74 68 82 71 131 133 170 217 23
50 28 72 28 149 0 77 -4 98 -26 146 -66 140 -197 210 -394 208 -58 0 -110 -6
-147 -18z m242 -162 c119 -54 159 -161 109 -293 -20 -55 -99 -146 -169 -196
l-28 -20 -80 60 c-172 130 -216 227 -156 348 27 55 68 92 119 110 52 18 155
14 205 -9z m-83 -758 c96 -76 210 -198 236 -251 50 -100 29 -214 -51 -280 -69
-57 -119 -74 -212 -74 -100 0 -162 22 -223 82 -108 104 -107 237 4 385 47 62
169 177 189 177 4 0 30 -17 57 -39z"/>
<path d="M6920 3248 c-148 -52 -246 -140 -315 -283 -100 -206 -100 -410 0
-612 73 -149 185 -244 339 -288 48 -14 84 -16 180 -12 126 5 207 23 331 73
l65 26 0 88 0 89 -72 -34 c-133 -61 -212 -80 -328 -80 -92 0 -112 3 -160 26
-31 14 -72 40 -91 57 -64 56 -129 204 -129 295 l0 37 401 0 402 0 -6 108 c-14
259 -99 417 -265 495 -61 29 -78 32 -177 35 -94 2 -120 -1 -175 -20z m255
-157 c87 -40 142 -131 152 -251 l6 -70 -292 0 -293 0 7 33 c31 141 128 266
233 297 50 15 145 11 187 -9z"/>
<path d="M4410 3245 c-277 -63 -469 -344 -470 -688 0 -232 84 -398 239 -474
171 -84 402 8 558 222 14 18 23 24 23 15 1 -33 30 -222 35 -231 4 -5 51 -9
105 -9 l98 0 -14 53 c-25 92 -35 312 -32 713 l3 391 -145 7 c-80 3 -188 8
-240 11 -64 3 -116 0 -160 -10z m240 -155 c123 -16 110 15 110 -271 l0 -249
-26 -43 c-122 -196 -294 -316 -408 -286 -60 16 -127 89 -151 164 -29 88 -28
284 2 380 58 185 202 303 383 314 8 0 49 -4 90 -9z"/>
</g>
</svg>
