<?xml version="1.0" encoding="UTF-8" standalone="no"?>
<svg
   id="Layer_1"
   data-name="Layer 1"
   viewBox="0 0 1499.9999 499.99998"
   version="1.1"
   sodipodi:docname="banner_white.svg"
   inkscape:version="1.1.2 (0a00cf5339, 2022-02-04)"
   width="1500"
   height="500"
   inkscape:export-filename="/home/jpihl/projects/steinwurf/.github/assets/banner_white.png"
   inkscape:export-xdpi="96"
   inkscape:export-ydpi="96"
   xmlns:inkscape="http://www.inkscape.org/namespaces/inkscape"
   xmlns:sodipodi="http://sodipodi.sourceforge.net/DTD/sodipodi-0.dtd"
   xmlns="http://www.w3.org/2000/svg"
   xmlns:svg="http://www.w3.org/2000/svg">
  <sodipodi:namedview
     id="namedview41"
     pagecolor="#ffffff"
     bordercolor="#666666"
     borderopacity="1.0"
     inkscape:pageshadow="2"
     inkscape:pageopacity="0.0"
     inkscape:pagecheckerboard="true"
     showgrid="false"
     inkscape:zoom="0.83190623"
     inkscape:cx="558.3562"
     inkscape:cy="238.60862"
     inkscape:window-width="1388"
     inkscape:window-height="970"
     inkscape:window-x="26"
     inkscape:window-y="23"
     inkscape:window-maximized="0"
     inkscape:current-layer="g2741" />
  <defs
     id="defs4">
    <style
       id="style2">.cls-1{fill:#93b7f7;}.cls-2{fill:#fff;}.cls-3{font-size:199.86px;font-family:Montserrat-Bold, Montserrat;font-weight:700;}.cls-4{letter-spacing:0em;}.cls-5{letter-spacing:0em;}.cls-6{font-size:109.98px;fill:#040404;font-family:Arial-ItalicMT, Arial;font-style:italic;}</style>
  </defs>
  <g
     id="g2741"
     transform="translate(13.152081,12.533579)">
    <rect
       x="128.82092"
       y="385.57141"
       width="94.640327"
       height="6.7683687"
       transform="rotate(-45)"
       id="rect6"
       style="stroke-width:0.834571;fill:#ffffff" />
    <rect
       x="142.88057"
       y="271.57733"
       width="37.70591"
       height="6.7683687"
       transform="rotate(-7.21)"
       id="rect8"
       style="stroke-width:0.834571;fill:#ffffff" />
    <rect
       x="57.28793"
       y="471.30603"
       width="6.7683687"
       height="52.377663"
       transform="rotate(-45)"
       id="rect10"
       style="stroke-width:0.834571;fill:#ffffff" />
    <rect
       x="-107.20589"
       y="397.543"
       width="63.477451"
       height="6.7683687"
       transform="rotate(-45)"
       id="rect12"
       style="stroke-width:0.834571;fill:#ffffff" />
    <rect
       x="299.65546"
       y="131.64702"
       width="6.7683687"
       height="25.671398"
       id="rect14"
       style="stroke-width:0.834571;fill:#ffffff" />
    <path
       d="m 303.08552,135.02703 a 30.812354,30.812354 0 1 1 30.80401,-30.80401 30.87912,30.87912 0 0 1 -30.80401,30.80401 z m 0,-54.847996 a 24.043985,24.043985 0 1 0 24.03564,24.043986 24.069022,24.069022 0 0 0 -24.03564,-24.043986 z"
       id="path16"
       style="stroke-width:0.834571;fill:#ffffff" />
    <path
       d="m 149.31585,290.71621 a 30.812354,30.812354 0 1 1 30.80401,-30.80401 30.87912,30.87912 0 0 1 -30.80401,30.80401 z m 0,-54.84799 a 24.043985,24.043985 0 1 0 24.03564,24.04398 24.069022,24.069022 0 0 0 -24.03564,-24.04398 z"
       id="path18"
       style="stroke-width:0.834571;fill:#ffffff" />
    <path
       d="M 449.74465,126.1305 A 30.812354,30.812354 0 1 1 480.557,95.318149 30.87912,30.87912 0 0 1 449.74465,126.1305 Z m 0,-54.856336 a 24.043985,24.043985 0 1 0 24.04398,24.043985 24.069022,24.069022 0 0 0 -24.04398,-24.069022 z"
       id="path20"
       style="stroke-width:0.834571;fill:#ffffff" />
    <path
       d="m 430.97515,376.00935 a 30.812354,30.812354 0 1 1 30.81236,-30.81236 30.87912,30.87912 0 0 1 -30.81236,30.81236 z m 0,-54.848 a 24.043985,24.043985 0 1 0 24.04399,24.03564 24.060676,24.060676 0 0 0 -24.04399,-24.03564 z"
       id="path22"
       style="stroke-width:0.834571;fill:#ffffff" />
    <path
       d="m 192.0876,410.42705 a 30.812354,30.812354 0 1 1 30.81236,-30.81236 30.87912,30.87912 0 0 1 -30.81236,30.81236 z m 0,-54.848 a 24.043985,24.043985 0 1 0 24.04399,24.03564 24.060676,24.060676 0 0 0 -24.04399,-24.03564 z"
       id="path24"
       style="stroke-width:0.834571;fill:#ffffff" />
    <circle
       class="cls-1"
       cx="303.32755"
       cy="245.51584"
       r="87.321144"
       id="circle26"
       style="stroke-width:0.834571" />
    <path
       class="cls-2"
       d="m 276.19565,300.8479 q -12.62706,-3.66377 -20.28842,-9.53914 l 8.9633,-19.87948 a 60.923668,60.923668 0 0 0 17.43418,8.63781 65.572228,65.572228 0 0 0 20.2133,3.25482 q 11.24167,0 16.61631,-3.33828 5.37463,-3.33828 5.38298,-8.87983 a 8.5042764,8.5042764 0 0 0 -3.17971,-6.76837 24.202553,24.202553 0 0 0 -8.14542,-4.31473 q -5.00742,-1.62742 -13.44493,-3.58866 a 183.44701,183.44701 0 0 1 -21.34832,-6.19251 34.634688,34.634688 0 0 1 -14.26282,-9.93974 q -5.94214,-6.85183 -5.95049,-18.25207 a 31.71369,31.71369 0 0 1 5.38298,-18.01003 q 5.37464,-8.06196 16.21572,-12.79397 10.84107,-4.73202 26.48093,-4.72367 a 87.805194,87.805194 0 0 1 21.34832,2.60386 63.160318,63.160318 0 0 1 18.25206,7.51113 l -8.14541,20.0297 q -15.80677,-8.96329 -31.62189,-8.96329 -11.0831,0 -16.37428,3.58031 -5.29118,3.58031 -5.29952,9.45569 0,5.84199 6.10906,8.72126 6.10906,2.87927 18.661,5.61666 a 187.31107,187.31107 0 0 1 21.34832,6.2259 35.385802,35.385802 0 0 1 14.27116,9.75614 q 5.95049,6.67656 5.95049,18.08514 a 31.171219,31.171219 0 0 1 -5.45809,17.85147 q -5.49982,8.06196 -16.34924,12.79397 -10.84942,4.73202 -26.56439,4.72368 a 93.279978,93.279978 0 0 1 -26.19718,-3.66377 z"
       id="path28"
       style="stroke-width:0.834571" />
    <path
       d="m 303.08552,334.8817 a 90.7095,90.7095 0 1 1 90.65943,-90.7095 90.809649,90.809649 0 0 1 -90.65943,90.7095 z m 0,-174.64229 a 83.932785,83.932785 0 1 0 83.89106,83.93279 84.024588,84.024588 0 0 0 -83.89106,-83.93279 z"
       id="path30"
       style="stroke-width:0.834571;fill:#ffffff" />
    <g
       aria-label="TEINWURF"
       id="text36"
       class="cls-3"
       style="font-weight:700;font-size:199.86px;font-family:Montserrat-Bold, Montserrat;fill:#ffffff"
       transform="matrix(0.8345708,0,0,0.8345708,121.89616,39.28388)">
      <path
         d="m 338.52071,177.43269 h 134.28094 v 28.39807 H 424.49564 V 323.13141 H 386.9243 V 205.83076 h -48.40359 z"
         id="path2487"
         style="fill:#ffffff" />
      <path
         d="m 492.22163,177.43269 h 101.39382 v 28.39807 h -63.82248 v 27.12944 h 60.01655 v 28.39807 h -60.01655 v 33.37506 h 65.96941 v 28.39808 H 492.22163 Z"
         id="path2489"
         style="fill:#ffffff" />
      <path
         d="m 628.7471,177.43269 h 37.57134 V 323.13141 H 628.7471 Z"
         id="path2491"
         style="fill:#ffffff" />
      <path
         d="m 679.05136,177.43269 h 41.96279 l 52.99023,99.93 v -99.93 h 35.61958 v 145.69872 h -41.9628 l -52.99022,-99.93 v 99.93 h -35.61958 z"
         style="letter-spacing:0em;fill:#ffffff"
         id="path2493" />
      <path
         d="m 827.3477,177.43269 h 36.00993 l 25.17768,105.88286 24.9825,-105.88286 h 36.2051 l 24.9825,105.88286 25.17768,-105.88286 h 35.71721 l -34.351,145.69872 h -43.329 L 931.47398,212.36915 905.32042,323.13141 H 861.9914 Z"
         style="letter-spacing:0em;fill:#ffffff"
         id="path2495" />
      <path
         d="m 1060.1924,177.43269 h 37.5713 v 87.34116 q 0,18.05376 5.8553,25.86079 5.9529,7.70944 19.3224,7.70944 13.4672,0 19.3224,-7.70944 5.9529,-7.80703 5.9529,-25.86079 v -87.34116 h 37.5713 v 87.34116 q 0,30.93536 -15.5164,46.06148 -15.5165,15.12613 -47.3302,15.12613 -31.716,0 -47.2325,-15.12613 -15.5165,-15.12612 -15.5165,-46.06148 z"
         style="letter-spacing:0em;fill:#ffffff"
         id="path2497" />
      <path
         d="m 1275.8617,242.03587 q 11.8081,0 16.8827,-4.39145 5.1721,-4.39146 5.1721,-14.44301 0,-9.95397 -5.1721,-14.24783 -5.0746,-4.29387 -16.8827,-4.29387 h -15.8093 v 37.37616 z m -15.8093,25.95838 v 55.13716 h -37.5713 V 177.43269 h 57.3817 q 28.7884,0 42.1579,9.6612 13.4672,9.6612 13.4672,30.54501 0,14.44301 -7.0264,23.71386 -6.9287,9.27085 -20.9814,13.6623 7.7095,1.75658 13.7599,8.00221 6.1481,6.14804 12.3937,18.73687 l 20.3959,41.37727 h -40.0111 l -17.761,-36.20511 q -5.3673,-10.92984 -10.9298,-14.93095 -5.4649,-4.0011 -14.6382,-4.0011 z"
         style="letter-spacing:0em;fill:#ffffff"
         id="path2499" />
      <path
         d="m 1376.3772,177.43269 h 101.3938 v 28.39807 h -63.8225 v 27.12944 h 60.0166 v 28.39807 h -60.0166 v 61.77314 h -37.5713 z"
         style="letter-spacing:0em;fill:#ffffff"
         id="path2501" />
    </g>
    <g
       aria-label="Smart Networks"
       id="text38"
       class="cls-6"
       style="font-style:italic;font-size:109.98px;font-family:Arial-ItalicMT, Arial;fill:#ffffff"
       transform="matrix(0.8345708,0,0,0.8345708,121.89616,39.28388)">
      <path
         d="m 522.45477,421.62545 q -13.37159,0 -20.78235,-4.72571 -7.35706,-4.7794 -9.1829,-14.49931 l 9.5051,-1.98695 q 1.44993,6.92745 6.44414,10.04212 4.99421,3.11467 14.76783,3.11467 11.76055,0 17.18437,-3.49058 5.42382,-3.54427 5.42382,-10.79393 0,-3.59798 -1.55733,-5.74603 -1.55734,-2.20175 -5.31642,-3.92018 -3.75908,-1.77214 -12.94198,-4.3498 -9.1829,-2.52395 -13.7475,-5.15531 -4.5109,-2.68506 -6.87375,-6.44414 -2.30915,-3.75908 -2.30915,-9.0218 0,-9.77361 8.21628,-15.30483 8.26998,-5.58493 22.33968,-5.58493 11.81426,0 18.95652,4.08129 7.14225,4.08129 8.96809,11.92166 l -9.2903,2.73876 q -1.77214,-5.63862 -6.39044,-8.32368 -4.5646,-2.68506 -12.29757,-2.68506 -20.19164,0 -20.19164,12.67348 0,3.22207 1.34253,5.26271 1.39623,2.04065 4.5109,3.59798 3.16837,1.50364 12.51237,4.02759 10.47173,2.89986 15.03633,5.58492 4.6183,2.68506 7.03486,6.55155 2.47025,3.81278 2.47025,9.4514 0,11.06245 -8.32368,17.02328 -8.32368,5.96083 -25.50806,5.96083 z"
         id="path2579"
         style="fill:#ffffff" />
      <path
         d="m 598.17343,420.55142 6.65894,-34.04654 q 1.34253,-6.71265 1.34253,-9.34401 0,-4.02758 -2.04064,-6.12193 -2.04065,-2.14805 -6.65895,-2.14805 -6.22934,0 -10.90134,5.31642 -4.6183,5.31642 -6.06823,13.9086 l -6.33674,32.43551 h -9.61251 l 8.9144,-45.6997 q 1.07402,-5.10161 2.09434,-12.40497 h 9.1292 q 0,0.59072 -0.59071,4.18869 -0.53701,3.54428 -0.91292,5.74603 h 0.1611 q 3.92019,-6.12193 7.84037,-8.53849 3.97389,-2.41655 9.45141,-2.41655 6.49784,0 10.31063,3.22207 3.81278,3.16837 4.5646,9.2366 4.45719,-6.98115 8.75329,-9.71991 4.34979,-2.73876 9.93471,-2.73876 7.24966,0 11.11615,3.92019 3.92018,3.92018 3.92018,11.33094 0,3.43688 -1.12772,8.807 l -6.82005,35.06686 h -9.55881 l 6.65895,-34.04654 q 1.34252,-6.71265 1.34252,-9.34401 0,-4.02758 -2.04064,-6.12193 -2.04064,-2.14805 -6.65895,-2.14805 -6.22933,0 -10.84763,5.26272 -4.6183,5.20901 -6.12194,13.8012 l -6.33673,32.59661 z"
         id="path2581"
         style="fill:#ffffff" />
      <path
         d="m 704.12584,421.08843 q -4.99421,0 -7.30336,-2.04064 -2.25545,-2.09435 -2.25545,-6.17564 l 0.2685,-3.43687 h -0.3222 q -4.4572,6.76635 -9.23661,9.50511 -4.7794,2.68506 -11.54575,2.68506 -7.51816,0 -12.24387,-4.5109 -4.672,-4.5109 -4.672,-11.49205 0,-9.93472 7.08856,-15.03633 7.14225,-5.10161 22.71559,-5.31642 l 12.45868,-0.1611 q 1.02032,-5.26272 1.02032,-6.82005 0,-4.88681 -2.84616,-7.19596 -2.84617,-2.36285 -7.89408,-2.36285 -6.39044,0 -9.66621,2.30915 -3.27577,2.25545 -4.7257,6.92745 l -9.55881,-1.55733 q 2.41655,-7.89408 8.37738,-11.43835 6.01453,-3.59798 16.11036,-3.59798 9.1829,0 14.49931,4.29609 5.37012,4.2961 5.37012,11.54576 0,3.43687 -1.02032,8.43108 l -3.97389,20.29904 q -0.59071,2.57766 -0.59071,4.72571 0,3.92018 4.34979,3.92018 1.44993,0 3.22207,-0.37591 l -0.75181,6.01454 q -3.54428,0.85921 -6.87375,0.85921 z m -6.33674,-29.32084 -10.68654,0.21481 q -6.39044,0.1611 -10.04211,1.18142 -3.65168,0.96662 -5.69233,2.52396 -1.98694,1.50363 -3.16837,3.86648 -1.12772,2.30915 -1.12772,5.63863 0,4.02758 2.57765,6.55154 2.63136,2.52395 6.76635,2.52395 5.20901,0 9.39771,-2.20174 4.18869,-2.25545 6.92745,-5.85343 2.73876,-3.59798 3.59798,-7.73297 z"
         id="path2583"
         style="fill:#ffffff" />
      <path
         d="m 754.06794,370.17972 q -2.36285,-0.69811 -4.8331,-0.69811 -5.63863,0 -10.20323,5.90713 -4.5109,5.90712 -6.12193,14.87522 l -5.90713,30.28746 h -9.66621 l 8.69959,-44.57197 1.34253,-7.41076 0.96662,-6.12194 h 9.1292 l -1.87954,11.86796 h 0.2148 q 3.54428,-7.14225 6.98115,-10.04212 3.43688,-2.89986 7.94778,-2.89986 2.47025,0 5.10161,0.75182 z"
         id="path2585"
         style="fill:#ffffff" />
      <path
         d="m 766.90253,421.62545 q -4.5646,0 -7.19596,-2.73876 -2.57766,-2.73876 -2.57766,-7.24966 0,-2.95357 0.80552,-6.98116 l 6.76635,-35.17426 h -6.71265 l 1.39623,-7.03486 h 6.82005 l 5.63863,-12.99568 h 6.44414 l -2.52396,12.99568 h 10.74024 l -1.39623,7.03486 h -10.74024 l -6.71265,34.63725 q -0.64441,3.22207 -0.64441,5.10161 0,4.72571 4.83311,4.72571 2.25544,0 5.37011,-0.75182 l -1.02032,7.14226 q -5.31642,1.28883 -9.2903,1.28883 z"
         id="path2587"
         style="fill:#ffffff" />
      <path
         d="M 866.24967,420.55142 837.73435,355.573 q -1.18143,9.1829 -2.25545,14.33822 l -9.71991,50.6402 h -9.1292 l 14.66042,-75.66495 h 11.38465 l 28.67642,65.24692 q 1.39623,-10.14952 2.41656,-15.25113 l 9.71991,-49.99579 h 9.2366 l -14.66042,75.66495 z"
         id="path2589"
         style="fill:#ffffff" />
      <path
         d="m 906.41815,393.53973 q -0.3222,1.87954 -0.48331,6.06823 0,7.14226 3.54428,10.95504 3.59798,3.81279 10.79394,3.81279 5.20901,0 9.4514,-2.57766 4.2424,-2.57766 6.60525,-7.03485 l 7.41076,3.38317 q -3.92019,7.03485 -9.98842,10.25693 -6.01453,3.22207 -14.60672,3.22207 -10.79393,0 -16.80846,-5.96083 -5.96083,-6.01454 -5.96083,-16.86217 0,-10.79394 3.81278,-19.33243 3.81278,-8.59218 10.74023,-13.31789 6.92745,-4.7794 15.57334,-4.7794 11.00874,0 17.13068,5.53122 6.12193,5.53122 6.12193,15.62704 0,5.63862 -1.28883,11.00874 z m 33.50954,-7.41076 0.2148,-3.86648 q 0,-6.65895 -3.49057,-10.20323 -3.43688,-3.54428 -9.93472,-3.54428 -7.19596,0 -12.13647,4.61831 -4.8868,4.5646 -6.87375,12.99568 z"
         id="path2591"
         style="fill:#ffffff" />
      <path
         d="m 968.60413,421.62545 q -4.5646,0 -7.19596,-2.73876 -2.57766,-2.73876 -2.57766,-7.24966 0,-2.95357 0.80552,-6.98116 l 6.76635,-35.17426 h -6.71265 l 1.39623,-7.03486 h 6.82005 l 5.63862,-12.99568 h 6.44415 l -2.52396,12.99568 h 10.74023 l -1.39623,7.03486 h -10.74023 l -6.71265,34.63725 q -0.64441,3.22207 -0.64441,5.10161 0,4.72571 4.8331,4.72571 2.25545,0 5.37012,-0.75182 l -1.02032,7.14226 q -5.31642,1.28883 -9.2903,1.28883 z"
         id="path2593"
         style="fill:#ffffff" />
      <path
         d="m 1041.7451,420.55142 h -11.2235 l -1.987,-37.48342 -0.3222,-12.67347 q -1.611,4.02758 -2.8998,7.08855 -1.2889,3.00727 -19.3325,43.06834 h -11.1698 l -4.94051,-58.10467 h 9.55881 l 2.148,39.47036 0.376,10.63284 4.3498,-10.20323 18.3121,-39.89997 h 10.3643 l 2.3628,39.89997 q 0.3222,5.79973 0.3222,10.20323 1.7722,-4.2424 22.6082,-50.1032 h 9.4514 z"
         id="path2595"
         style="fill:#ffffff" />
      <path
         d="m 1121.4914,383.87352 q 0,6.98115 -2.1481,14.55302 -2.148,7.51816 -6.1756,12.78088 -3.9739,5.20901 -9.7736,7.84037 -5.7997,2.57766 -13.2105,2.57766 -10.5254,0 -16.6474,-6.33674 -6.1219,-6.33674 -6.1219,-17.23808 0.2148,-10.95504 3.9739,-19.43982 3.7591,-8.48479 10.418,-12.83458 6.659,-4.3498 16.4863,-4.3498 11.2772,0 17.238,5.90713 5.9609,5.85343 5.9609,16.53996 z m -9.9884,0 q 0,-15.35854 -13.3179,-15.35854 -7.2497,0 -11.6532,3.75909 -4.3498,3.70538 -6.7663,11.27724 -2.4166,7.57187 -2.4166,14.66042 0,7.94778 3.4369,12.13647 3.4369,4.13499 9.9884,4.13499 5.5312,0 8.8607,-1.82584 3.3832,-1.87954 5.9071,-5.79973 2.524,-3.97388 4.0813,-10.09582 1.6111,-6.12193 1.8796,-12.88828 z"
         id="path2597"
         style="fill:#ffffff" />
      <path
         d="m 1163.5394,370.17972 q -2.3628,-0.69811 -4.8331,-0.69811 -5.6386,0 -10.2032,5.90713 -4.5109,5.90712 -6.122,14.87522 l -5.9071,30.28746 h -9.6662 l 8.6996,-44.57197 1.3425,-7.41076 0.9666,-6.12194 h 9.1292 l -1.8795,11.86796 h 0.2148 q 3.5443,-7.14225 6.9812,-10.04212 3.4368,-2.89986 7.9477,-2.89986 2.4703,0 5.1016,0.75182 z"
         id="path2599"
         style="fill:#ffffff" />
      <path
         d="m 1200.3247,420.55142 -14.392,-26.95799 -9.0218,6.65895 -3.8664,20.29904 h -9.6126 l 15.466,-79.69254 h 9.6662 l -9.6125,49.24398 10.955,-10.20323 19.3862,-17.45288 h 11.9216 l -28.4616,24.97105 18.0436,33.13362 z"
         id="path2601"
         style="fill:#ffffff" />
      <path
         d="m 1265.3031,403.52815 q 0,8.69959 -6.6589,13.42529 -6.659,4.67201 -19.225,4.67201 -9.344,0 -14.8753,-3.11467 -5.4775,-3.16837 -7.6792,-9.93472 l 7.894,-3.00727 q 1.7722,4.72571 5.4776,6.87375 3.759,2.14805 10.0421,2.14805 7.6792,0 11.6531,-2.57765 3.9739,-2.63136 3.9739,-7.62557 0,-3.32947 -2.7387,-5.53122 -2.7388,-2.25545 -11.5995,-4.99421 -6.8737,-2.25545 -10.3106,-4.4035 -3.4369,-2.14804 -5.2627,-4.99421 -1.8259,-2.89986 -1.8259,-6.71264 0,-7.78667 6.2294,-11.97536 6.2293,-4.2424 17.5602,-4.2424 19.0103,0 21.3731,13.6938 l -8.7533,1.34253 q -1.1814,-4.24239 -4.4572,-6.12193 -3.2757,-1.87954 -8.807,-1.87954 -6.6589,0 -10.2569,2.14804 -3.5443,2.09435 -3.5443,5.96083 0,2.25545 1.1278,3.81279 1.1277,1.55733 3.222,2.79246 2.1481,1.18142 9.8273,3.59798 6.8201,2.14804 10.257,4.34979 3.4905,2.20175 5.4238,5.20902 1.9332,3.00726 1.9332,7.08855 z"
         id="path2603"
         style="fill:#ffffff" />
    </g>
  </g>
</svg>
